<?xml version="1.0" encoding="UTF-8" standalone="no"?>
<svg
   xmlns:dc="http://purl.org/dc/elements/1.1/"
   xmlns:cc="http://creativecommons.org/ns#"
   xmlns:rdf="http://www.w3.org/1999/02/22-rdf-syntax-ns#"
   xmlns:svg="http://www.w3.org/2000/svg"
   xmlns="http://www.w3.org/2000/svg"
   xmlns:sodipodi="http://sodipodi.sourceforge.net/DTD/sodipodi-0.dtd"
   xmlns:inkscape="http://www.inkscape.org/namespaces/inkscape"
   viewBox="0 0 545.44904 183.56539"
   height="183.56538"
   width="545.44904"
   xml:space="preserve"
   id="svg2"
   version="1.1"
   inkscape:version="0.91 r13725"
   sodipodi:docname="Mikuni company logo.svg"><sodipodi:namedview
     pagecolor="#ffffff"
     bordercolor="#666666"
     borderopacity="1"
     objecttolerance="10"
     gridtolerance="10"
     guidetolerance="10"
     inkscape:pageopacity="0"
     inkscape:pageshadow="2"
     inkscape:window-width="1366"
     inkscape:window-height="716"
     id="namedview19"
     showgrid="false"
     fit-margin-top="5"
     fit-margin-bottom="5"
     fit-margin-right="5"
     fit-margin-left="5"
     inkscape:zoom="1"
     inkscape:cx="196.98965"
     inkscape:cy="132.78319"
     inkscape:window-x="-8"
     inkscape:window-y="-8"
     inkscape:window-maximized="1"
     inkscape:current-layer="g12" /><metadata
     id="metadata8"><rdf:RDF><cc:Work
         rdf:about=""><dc:format>image/svg+xml</dc:format><dc:type
           rdf:resource="http://purl.org/dc/dcmitype/StillImage" /><dc:title></dc:title></cc:Work></rdf:RDF></metadata><defs
     id="defs6" /><g
     transform="matrix(2.2671564,0,0,-2.2671564,500.13273,284.36715)"
     id="g10"><g
       transform="matrix(0.1,0,0,0.1,118.65084,-3.9697305)"
       id="g12"><path
         id="path16"
         style="fill:#0096e0;fill-opacity:1;fill-rule:evenodd;stroke:none"
         d="m -2205.6013,670.20508 -33.3392,-154.63624 -141.769,0 c -7.3548,0 -14.7042,7.09276 -16.5412,13.91674 -4.7236,-8.66772 -13.6534,-12.07972 -24.9443,-12.07972 l -129.958,0 c -23.3653,0 -33.6012,9.71189 -28.6143,31.50752 l 117.8784,517.72242 c 5.7798,25.4656 23.1032,26.7826 38.861,26.7826 l 110.5262,0 c 11.5476,0 22.3144,-4.475 31.2441,-14.7015 6.5606,9.9712 18.6403,13.9086 29.6638,13.9086 l 72.4568,0 c 23.8947,0 29.4071,-19.9559 46.205,-55.124 l 25.7344,28.3414 c 19.6872,21.797 31.4995,29.4165 64.3293,29.4165 l 249.9261,0 c 14.4328,0 20.7354,-18.1283 16.5426,-40.7047 l -67.2185,-347.59444 c -3.9375,-19.95324 1.5857,-29.9312 8.9365,-30.71869 7.3507,-0.52543 16.7979,8.66638 20.48,27.04465 l 72.7148,360.46038 c 4.4615,22.321 16.2738,29.6718 30.4513,29.6718 l 132.5825,0 c 10.7641,0 20.2247,-7.0954 27.8308,-16.5426 7.0955,8.6677 19.1765,17.5908 31.2441,17.5908 l 82.9683,0 c 35.1816,0 43.5671,-45.6903 54.3446,-90.8431 l 12.0676,62.2194 c 3.1581,16.2873 21.2729,27.5755 36.7539,27.5755 l 107.9098,0 c 13.6533,0 26.7826,-3.6821 37.802,-16.5426 7.3508,10.24 21.0041,18.3836 33.8646,18.3836 l 119.9909,0 c 19.6871,0 28.3414,-10.5087 25.4522,-22.0657 l -124.1836,-536.35466 c -2.8759,-12.08375 -11.0195,-17.59481 -33.0718,-17.59481 l -109.7374,0 c -12.8605,0 -31.2441,8.66638 -34.1334,18.64031 l -8.1302,-22.3157 -142.8225,0 -25.9898,48.04204 -9.9847,-46.20502 -156.7312,0 c -10.7641,0 -22.3211,8.14229 -18.1149,26.7826 l 10.7641,45.41216 -10.24,4.73029 c -24.9416,-57.23386 -73.7764,-78.49867 -133.3755,-86.11149 -56.4409,-7.08066 -107.1035,7.34942 -142.8091,23.10318 l 0,-17.59078 -197.4346,0 -60.3825,156.47326"
         inkscape:connector-curvature="0" /><path
         id="path18"
         style="fill:#ffffff;fill-opacity:1;fill-rule:evenodd;stroke:none"
         d="m -2087.9863,829.82693 130.4727,147.01394 -67.2051,-282.74647 -63.2676,135.73253"
         inkscape:connector-curvature="0" /><path
         id="path20"
         style="fill:#ffffff;fill-opacity:1;fill-rule:evenodd;stroke:none"
         d="m -1987.6961,694.61984 83.2236,373.33296 95.8288,0 -77.7139,-345.23879 c -11.2882,-49.62238 3.158,-75.61212 38.0708,-75.35007 43.3117,0.26339 54.5999,24.67816 66.1569,76.66165 l 76.3969,343.92721 102.9242,0 -92.4154,-395.64866 c -17.8595,-75.61212 -73.5211,-121.29169 -161.4616,-121.29169 -79.5549,0 -147.2841,69.57024 -131.0103,143.60739"
         inkscape:connector-curvature="0" /><path
         id="path22"
         style="fill:#ffffff;fill-opacity:1;fill-rule:evenodd;stroke:none"
         d="m -2201.3978,913.04911 136.512,154.90369 125.5006,0 -206.6157,-222.37346 133.3633,-278.81851 -121.0256,0 -97.4037,220.01102 -51.4541,-220.01102 -96.3515,0 117.6164,501.19197 95.822,0 -35.9637,-154.90369"
         inkscape:connector-curvature="0" /><path
         id="path24"
         style="fill:#ffffff;fill-opacity:1;fill-rule:evenodd;stroke:none"
         d="m -1405.1175,756.05183 -24.955,311.90097 -96.3394,0 -117.3569,-501.19197 96.3528,0 58.5508,250.46228 39.3743,-250.46228 96.0841,0 117.6257,501.19197 -96.3528,0 -72.9836,-311.90097"
         inkscape:connector-curvature="0" /><path
         id="path26"
         style="fill:#ffffff;fill-opacity:1;fill-rule:evenodd;stroke:none"
         d="m -1274.1206,566.76083 96.0841,0 117.6257,501.19197 -96.3529,0 -117.3569,-501.19197"
         inkscape:connector-curvature="0" /><path
         id="path28"
         style="fill:#ffffff;fill-opacity:1;fill-rule:evenodd;stroke:none"
         d="m -2552.153,566.76083 96.3568,0 117.3543,501.19197 -96.0894,0 -117.6217,-501.19197"
         inkscape:connector-curvature="0" /><path
         id="path30"
         style="fill:#0096e0;fill-opacity:1;fill-rule:evenodd;stroke:none"
         d="m -3253.9121,524.23119 434.2355,747.70201 c 29.4071,-1.8276 37.544,-30.4513 34.394,-60.3784 l -19.6844,-226.30154 -269.6334,-461.02207 -179.3117,0"
         inkscape:connector-curvature="0" /><path
         id="path32"
         style="fill:#0096e0;fill-opacity:1;fill-rule:evenodd;stroke:none"
         d="m -2837.7861,1271.9332 -434.2422,-747.70201 -67.4753,0 c -36.4826,0 -34.6453,35.44764 -24.9392,51.9835 l 390.9188,660.28161 c 10.5034,17.8461 30.4566,35.4369 51.1973,35.4369 l 84.5406,0"
         inkscape:connector-curvature="0" /><path
         id="path34"
         style="fill:#e8340c;fill-opacity:1;fill-rule:evenodd;stroke:none"
         d="m -2455.2721,1226.001 -155.6844,-701.76981 -105.2813,0 171.7016,747.70201 51.9835,0 c 38.8556,0 41.7435,-26.5138 37.2806,-45.9322"
         inkscape:connector-curvature="0" /><path
         id="path36"
         style="fill:#e8340c;fill-opacity:1;fill-rule:evenodd;stroke:none"
         d="m -3056.4842,524.23119 323.9686,0 171.7002,747.70201 -35.4382,0 c -20.7448,0 -39.6431,-19.4184 -49.8844,-37.5333 -139.6687,-250.20826 -262.2786,-453.92794 -410.3462,-710.16871"
         inkscape:connector-curvature="0" /></g></g></svg>